<?xml version="1.0" encoding="UTF-8" standalone="no"?>
<svg width="124px" height="32px" viewBox="0 0 124 32" version="1.1" xmlns="http://www.w3.org/2000/svg" xmlns:xlink="http://www.w3.org/1999/xlink">
    <!-- Generator: Sketch 47.1 (45422) - http://www.bohemiancoding.com/sketch -->
    <title>nav_logo_white</title>
    <desc>Created with Sketch.</desc>
    <defs></defs>
    <g id="Symbols" stroke="none" stroke-width="1" fill="none" fill-rule="evenodd">
        <g id="Header" transform="translate(0.000000, -3.000000)">
            <g id="Global-Nav">
                <g id="Nav-Copy-2">
                    <g id="Logo-[Green-+-White]" transform="translate(0.000000, 3.000000)">
                        <g id="Logo">
                            <g id="Q" fill-rule="nonzero" fill="#00A971">
                                <polygon id="Shape" points="19.2205475 18.5056438 24.3146827 21.4939178 19.2205475 24.4839452"></polygon>
                                <polygon id="Shape" points="19.6229885 17.8007671 24.7141044 14.8124932 24.7141044 20.7850959"></polygon>
                                <polygon id="Shape" points="19.2205475 11.1153973 24.3146827 14.1032329 19.2205475 17.094137"></polygon>
                                <polygon id="Shape" points="0.730691371 6.71386301 5.82094454 3.72471233 5.82094454 9.70169863"></polygon>
                                <polygon id="Shape" points="0.32652501 7.42005479 5.41850354 10.4096438 0.32652501 13.395726"></polygon>
                                <polygon id="Shape" points="0.32652501 14.8111781 5.4202289 17.8007671 0.32652501 20.7894795"></polygon>
                                <polygon id="Shape" points="19.2205475 3.7229589 24.3155454 6.71386301 19.2205475 9.70389041"></polygon>
                                <polygon id="Shape" points="19.6229885 10.4096438 24.7141044 7.42356164 24.7141044 13.395726"></polygon>
                                <polygon id="Shape" points="13.324981 6.71386301 18.4182536 3.72471233 18.4182536 9.70038356"></polygon>
                                <polygon id="Shape" points="13.324981 21.491726 18.4182536 18.5056438 18.4182536 24.4808767"></polygon>
                                <polygon id="Shape" points="7.02654217 3.01808219 12.1185207 0.0298082192 12.1185207 6.00547945"></polygon>
                                <polygon id="Shape" points="12.9203833 0.0289315068 18.0162439 3.01808219 12.9203833 6.00767123"></polygon>
                                <polygon id="Shape" points="12.9203833 22.201863 18.0162439 25.190137 12.9203833 28.1792877"></polygon>
                                <polygon id="Shape" points="13.324981 28.8867945 18.4182536 25.8976438 18.4182536 31.8737534"></polygon>
                                <polygon id="Shape" points="6.62237581 18.5056438 11.7182364 21.4939178 6.62237581 24.4839452"></polygon>
                                <polygon id="Shape" points="6.62237581 3.72076712 11.7182364 6.71210959 6.62237581 9.70038356"></polygon>
                                <polygon id="Shape" points="0.728534667 14.1032329 5.82094454 11.1184658 5.82094454 17.0906301"></polygon>
                                <polygon id="Shape" points="0.730691371 21.4939178 5.82094454 18.5073973 5.82094454 24.4839452"></polygon>
                                <polygon id="Shape" points="7.02654217 25.1914521 12.1185207 22.201863 12.1185207 28.1792877"></polygon>
                            </g>
                            <g id="Logotype" transform="translate(31.840796, 6.095238)" fill-rule="nonzero" fill="#FFFFFF">
                                <path d="M9.4466652,11.9984762 C9.4466652,13.0660136 8.09857276,14.3677823 6.9133839,14.9955918 C7.9369759,15.5093333 8.49320015,15.8106122 8.98278202,16.1354014 C9.35432414,16.3661497 9.47062161,16.5777415 9.33123887,16.9708844 C9.23715552,17.2739048 8.77283677,17.9482993 8.42481549,17.9482993 C8.14517887,17.9482993 7.98227529,17.8542585 7.56325593,17.553415 C6.86634223,17.1128163 5.37843148,16.1819864 3.68101105,15.4836463 C2.19179359,14.8802177 0.332340721,13.2762993 0.332340721,11.9984762 L0.332340721,3.81779592 C0.332340721,2.21257143 3.30772665,0.0505034014 4.86663548,0.0505034014 C6.4708437,0.0505034014 9.4466652,2.2130068 9.4466652,3.81779592 L9.4466652,11.9984762 Z M2.63346264,11.6950204 C2.63346264,12.5087347 4.1453298,13.6237279 4.86707105,13.6237279 C5.63367612,13.6237279 7.14554328,12.5087347 7.14554328,11.6950204 L7.14554328,4.11733333 C7.14554328,3.30405442 5.65719696,2.18993197 4.86707105,2.18993197 C4.1453298,2.18993197 2.63346264,3.30405442 2.63346264,4.11733333 L2.63346264,11.6950204 Z" id="Shape"></path>
                                <path d="M14.4213223,15.0426122 C14.4213223,15.3221224 14.2126838,15.555483 13.9090907,15.555483 L12.6315608,15.555483 C12.3506175,15.555483 12.1197648,15.3221224 12.1197648,15.0426122 L12.1197648,0.771918367 C12.1197648,0.492843537 12.3506175,0.26122449 12.6315608,0.26122449 L13.9090907,0.26122449 C14.2122482,0.26122449 14.4213223,0.492843537 14.4213223,0.771918367 L14.4213223,15.0426122 Z" id="Shape"></path>
                                <path d="M19.583275,5.28021769 L19.583275,15.0426122 C19.583275,15.3451973 19.3511156,15.555483 19.0261796,15.555483 L17.8623337,15.555483 C17.5835682,15.555483 17.3287591,15.3456327 17.3287591,15.0426122 L17.3287591,0.771918367 C17.3287591,0.492843537 17.5835682,0.26122449 17.8623337,0.26122449 L18.838884,0.26122449 C19.2112973,0.26122449 19.3742009,0.446693878 19.5601897,0.771918367 L24.257388,10.6266122 L24.257388,0.771918367 C24.257388,0.468897959 24.4660266,0.26122449 24.7700552,0.26122449 L25.955244,0.26122449 C26.2584015,0.26122449 26.4901253,0.468897959 26.4901253,0.771918367 L26.4901253,15.0426122 C26.4901253,15.3451973 26.2588371,15.555483 25.955244,15.555483 L25.0026501,15.555483 C24.652451,15.555483 24.4194205,15.2977415 24.2800377,15.0426122 L19.583275,5.28021769 Z" id="Shape"></path>
                                <path d="M34.1387532,7.30165986 C34.1387532,7.02258503 34.3944334,6.79096599 34.6727633,6.79096599 L37.5109443,6.79096599 C37.8136662,6.79096599 38.2544641,7.23287075 38.2544641,7.51107483 L38.2544641,11.9980408 C38.2544641,13.5545034 35.3252487,15.7627211 33.7201694,15.7627211 C32.1621317,15.7627211 29.1619182,13.5545034 29.1619182,11.9980408 L29.1619182,3.81736054 C29.1619182,2.21213605 32.1852169,0.0500680272 33.7201694,0.0500680272 C34.7202405,0.0500680272 36.2085868,0.817197279 37.3009991,1.49246259 C37.5810713,1.65572789 37.6738479,1.98051701 37.5331585,2.25785034 L37.1389666,3.02541497 C36.9995839,3.28185034 36.6267351,3.37545578 36.3248843,3.21262585 C35.4877167,2.76985034 34.3482628,2.18993197 33.7206049,2.18993197 C33.0236912,2.18993197 31.4647824,3.30405442 31.4647824,4.11733333 L31.4647824,11.6950204 C31.4647824,12.4856599 32.9997348,13.6237279 33.7206049,13.6237279 C34.4183898,13.6237279 35.9537778,12.4621497 35.9537778,11.6950204 L35.9537778,8.81371429 L34.6736344,8.81371429 C34.3953045,8.81371429 34.1396243,8.57991837 34.1396243,8.30214966 L34.1396243,7.30165986 L34.1387532,7.30165986 Z" id="Shape"></path>
                                <path d="M42.6711547,11.6950204 C42.6711547,12.533551 44.2757985,13.645932 44.9043275,13.645932 C45.5550707,13.645932 46.5081002,13.1361088 47.3452678,12.6715646 C47.6710749,12.5087347 48.0661379,12.6023401 48.2063918,12.9049252 L48.5779339,13.671619 C48.716881,13.9737687 48.6241044,14.2994286 48.3692953,14.4378776 C47.2990972,15.0887619 45.9971753,15.7631565 44.9047631,15.7631565 C43.3920248,15.7631565 40.3704684,13.696 40.3704684,11.9984762 L40.3704684,3.81779592 C40.3704684,2.16729252 43.3693751,0.0505034014 44.9278484,0.0505034014 C45.9039631,0.0505034014 47.2524911,0.727510204 48.3457745,1.35314286 C48.6249756,1.49289796 48.7177522,1.86383673 48.5552842,2.14291156 L48.2068273,2.88653061 C48.067009,3.16604082 47.6941602,3.25790476 47.392745,3.0955102 C46.5551419,2.67755102 45.5785915,2.16685714 44.9278484,2.16685714 C44.2762341,2.16685714 42.6715903,3.28185034 42.6715903,4.11689796 L42.6715903,11.6950204 L42.6711547,11.6950204 Z" id="Shape"></path>
                                <path d="M50.5301634,14.6007075 L50.5301634,0.771482993 C50.5301634,0.492408163 50.785408,0.260789116 51.0654802,0.260789116 L52.2746255,0.260789116 C52.5751695,0.260789116 52.8308497,0.492408163 52.8308497,0.771482993 L52.8308497,13.5318639 L57.2039832,13.5318639 C57.5053984,13.5318639 57.7393,13.7639184 57.7393,14.0421224 L57.7393,15.0426122 C57.7393,15.3221224 57.5058339,15.555483 57.2039832,15.555483 L51.4361512,15.555483 C51.1107796,15.555483 50.5301634,14.9028571 50.5301634,14.6007075 Z" id="Shape"></path>
                                <path d="M67.8297393,11.9984762 C67.8297393,13.6015238 64.8530466,15.7631565 63.2484028,15.7631565 C61.6899296,15.7631565 58.7136725,13.6237279 58.7136725,11.9984762 L58.7136725,3.81779592 C58.7136725,2.21257143 61.6899296,0.0505034014 63.2484028,0.0505034014 C64.8530466,0.0505034014 67.8297393,2.2130068 67.8297393,3.81779592 L67.8297393,11.9984762 Z M61.0161011,11.6950204 C61.0161011,12.5087347 62.5266616,13.6237279 63.2484028,13.6237279 C64.015879,13.6237279 65.5273106,12.5087347 65.5273106,11.6950204 L65.5273106,4.11733333 C65.5273106,3.30405442 64.0393999,2.18993197 63.2484028,2.18993197 C62.5266616,2.18993197 61.0161011,3.30405442 61.0161011,4.11733333 L61.0161011,11.6950204 Z" id="Shape"></path>
                                <path d="M74.919965,15.7631565 C73.384577,15.7631565 70.3861058,13.696 70.3861058,12.0198095 L70.3861058,0.771482993 C70.3861058,0.492408163 70.6404793,0.260789116 70.9209871,0.260789116 L72.1532176,0.260789116 C72.4541972,0.260789116 72.6867922,0.492408163 72.6867922,0.771482993 L72.6867922,11.718966 C72.6867922,12.533551 74.1999661,13.6463673 74.9204006,13.6463673 C75.6421418,13.6463673 77.1522667,12.533551 77.1522667,11.718966 L77.1522667,0.771482993 C77.1522667,0.492408163 77.362212,0.260789116 77.6427197,0.260789116 L78.9193785,0.260789116 C79.2003219,0.260789116 79.4551309,0.492408163 79.4551309,0.771482993 L79.4551309,12.0198095 C79.4546954,13.6463673 76.4549174,15.7631565 74.919965,15.7631565 Z" id="Shape"></path>
                                <path d="M91.1719925,11.9518912 C91.1719925,13.3459592 88.5672776,15.5550476 86.9865902,15.5550476 L83.3587188,15.5550476 C82.7071045,15.5550476 82.2440924,15.1579864 82.2440924,14.6934422 L82.2440924,1.16680272 C82.2440924,0.677877551 82.7545817,0.260789116 83.3587188,0.260789116 L86.9408552,0.260789116 C88.5672776,0.260789116 91.1724281,2.3057415 91.1724281,3.86220408 L91.1724281,11.9518912 L91.1719925,11.9518912 Z M88.8695639,4.18786395 C88.8695639,3.42029932 87.4748653,2.25785034 86.6381333,2.25785034 L84.5456499,2.25785034 L84.5456499,13.5545034 L86.685175,13.5545034 C87.4979506,13.5545034 88.8695639,12.3711565 88.8695639,11.6266667 L88.8695639,4.18786395 Z" id="Shape"></path>
                            </g>
                        </g>
                    </g>
                </g>
            </g>
        </g>
    </g>
</svg>